<?xml version="1.0" encoding="UTF-8" standalone="no"?>
<!-- Created with Inkscape (http://www.inkscape.org/) -->
<svg xmlns:dc="http://purl.org/dc/elements/1.1/" xmlns:cc="http://creativecommons.org/ns#" xmlns:rdf="http://www.w3.org/1999/02/22-rdf-syntax-ns#" xmlns:svg="http://www.w3.org/2000/svg" xmlns="http://www.w3.org/2000/svg" xmlns:sodipodi="http://sodipodi.sourceforge.net/DTD/sodipodi-0.dtd" xmlns:inkscape="http://www.inkscape.org/namespaces/inkscape" version="1.1" id="svg3680" width="532" height="617" viewBox="0 0 532 617" sodipodi:docname="LOGO EEL.svg" inkscape:version="0.92.0 r15299">
  <metadata id="metadata3686">
    <rdf:RDF>
      <cc:Work rdf:about="">
        <dc:format>image/svg+xml</dc:format>
        <dc:type rdf:resource="http://purl.org/dc/dcmitype/StillImage"/>
        <dc:title/>
      </cc:Work>
    </rdf:RDF>
  </metadata>
  <defs id="defs3684"/>
  <sodipodi:namedview pagecolor="#ffffff" bordercolor="#666666" borderopacity="1" objecttolerance="10" gridtolerance="10" guidetolerance="10" inkscape:pageopacity="0" inkscape:pageshadow="2" inkscape:window-width="1366" inkscape:window-height="715" id="namedview3682" showgrid="false" inkscape:zoom="0.88492707" inkscape:cx="126.44048" inkscape:cy="308.5" inkscape:window-x="-8" inkscape:window-y="-8" inkscape:window-maximized="1" inkscape:current-layer="svg3680"/>
  <path style="fill:#29186b" d="m 229.32547,613.29487 c -8.8,-1.11518 -16.18304,-2.17596 -16.40675,-2.35729 -0.2237,-0.18132 0.70234,-1.35754 2.05787,-2.6138 2.11353,-1.95874 2.6997,-3.99013 4.11482,-14.25993 2.65949,-19.30052 3.98399,-32.38213 3.42589,-33.8365 -0.28596,-0.74521 -1.99299,-1.64954 -3.79338,-2.00962 -2.35418,-0.47084 -2.96862,-0.95953 -2.18796,-1.74018 1.50207,-1.50207 24.46094,1.12479 25.04105,2.8651 0.27192,0.81577 -0.65707,1.24539 -2.69296,1.24539 -2.30437,0 -3.32815,0.58182 -3.95913,2.25 -0.80365,2.12468 -4.23549,25.94919 -5.68004,39.4319 l -0.66233,6.1819 3.87146,0.7464 c 2.1293,0.41052 6.95259,0.77867 10.71841,0.8181 l 6.84695,0.0717 1.56447,-4 c 1.93687,-4.95218 2.05141,-5.09022 3.2384,-3.90323 0.5933,0.5933 0.62419,2.29653 0.0804,4.43334 -0.48568,1.90844 -1.1603,4.70739 -1.49916,6.21989 -0.74988,3.34713 -1.20258,3.35572 -24.078,0.45683 z m 72.24051,0.92999 c -8.25707,-3.09169 -9.31824,-5.54274 -12.24671,-28.28684 -1.31097,-10.18173 -2.91349,-19.15073 -3.56114,-19.93111 -0.64766,-0.78038 -2.24746,-1.41887 -3.55511,-1.41887 -3.01804,0 -3.11501,-1.82018 -0.12756,-2.39428 2.78318,-0.53485 20.0264,-2.60572 21.69667,-2.60572 2.13031,0 0.50627,2.42114 -2.02081,3.01266 -2.08829,0.48881 -2.46856,1.23025 -2.73271,5.32811 -0.41204,6.3919 2.54549,30.09795 4.26983,34.22488 0.75871,1.81583 2.74257,4.0064 4.40858,4.86793 6.88983,3.56287 20.41518,0.62204 22.97465,-4.99539 0.63458,-1.39276 1.15379,-5.30446 1.15379,-8.69267 0,-8.24189 -2.95135,-30.92713 -4.22767,-32.49552 -0.55947,-0.6875 -2.31212,-1.25 -3.89477,-1.25 -3.1573,0 -3.90866,-1.57319 -1.12756,-2.36087 0.9625,-0.27261 5.0125,-0.7986 9,-1.16888 7.47451,-0.69408 9.36997,0.2428 4.75,2.3478 -3.00363,1.36854 -2.96542,0.32815 -0.83848,22.82826 l 1.71537,18.1463 -2.4964,4.85098 c -3.49251,6.78662 -10.48296,10.35344 -21.48656,10.96334 -5.31764,0.29475 -9.12089,-0.0219 -11.65341,-0.97011 z m -112.25211,-8.24928 c -4.94363,-1.32493 -13.81785,-3.64164 -19.7205,-5.14825 -5.90265,-1.50661 -10.74015,-3.06822 -10.75,-3.47024 -0.01,-0.40202 1.08449,-1.00763 2.43187,-1.3458 2.91639,-0.73197 5.31808,-7.26879 11.46612,-31.20795 4.10863,-15.99816 4.11907,-15.52776 -0.41433,-18.66764 -4.21505,-2.9194 -0.11534,-2.62986 13.19015,0.93153 16.05073,4.2962 27.30863,7.51728 27.30747,7.81316 -4.5e-4,0.11421 -0.85532,2.45765 -1.89972,5.20765 -2.04283,5.37899 -3.59713,6.12409 -3.6033,1.72735 -0.002,-1.50004 -0.32251,-3.21922 -0.71202,-3.8204 -0.89083,-1.37496 -15.18204,-5.67257 -17.40245,-5.23323 -1.12714,0.22303 -2.52393,3.25475 -4.41376,9.58004 -1.52064,5.08957 -2.473,9.42969 -2.11637,9.64472 1.40371,0.84636 11.61751,3.60152 13.35137,3.60152 1.01197,0 2.35252,-1.125 2.97901,-2.5 1.12964,-2.47929 4.46412,-3.64941 3.56212,-1.25 -0.25845,0.6875 -1.30728,4.51644 -2.33073,8.50875 -1.91949,7.4876 -3.91334,9.11276 -3.91334,3.18971 0,-3.08068 -0.38341,-3.50787 -4.5,-5.01384 -2.475,-0.90542 -5.91608,-1.91558 -7.64684,-2.24479 l -3.14685,-0.59857 -2.728,10.99619 c -1.50041,6.0479 -2.52783,11.19636 -2.28317,11.44103 0.71268,0.71268 16.09811,4.4393 18.39739,4.45617 1.37429,0.0101 2.73949,-1.18599 3.9774,-3.48465 1.03668,-1.925 2.45755,-3.5 3.15747,-3.5 1.56333,0 1.6633,-0.66088 -1.00559,6.64824 l -2.245,6.14825 z m 162.18251,-3.77179 c -0.34786,-2.5379 -0.91491,-5.73968 -1.2601,-7.11506 -0.46454,-1.85088 -0.23033,-2.50069 0.90132,-2.50069 0.88954,0 1.80762,1.26878 2.1953,3.03388 2.46825,11.23787 26.49256,7.23882 26.49256,-4.4099 0,-8.99784 -3.40876,-10.97711 -17.419,-10.11422 -8.92171,0.54949 -10.4352,0.39696 -13.16104,-1.32638 -6.02625,-3.80992 -8.27277,-13.99268 -4.66841,-21.16035 0.99152,-1.97173 3.69658,-4.66486 6.24845,-6.22089 5.36652,-3.27228 15.57967,-6.04325 20.68465,-5.61202 3.61326,0.30521 3.68589,0.39722 4.82043,6.10686 1.10581,5.56503 0.63073,7.52302 -1.50508,6.20302 -0.55,-0.33992 -1,-1.26648 -1,-2.05902 0,-6.9878 -16.52631,-7.23846 -21.36931,-0.32411 -2.24953,3.21167 -2.04083,8.092 0.48327,11.30087 2.11223,2.68527 2.12391,2.68724 14.3423,2.41653 14.17651,-0.3141 16.4562,0.55725 19.60557,7.49369 2.38441,5.25162 2.39587,9.08859 0.0423,14.17204 -4.10015,8.8559 -12.84195,13.62601 -26.20244,14.2978 l -8.59831,0.43233 -0.63247,-4.61438 z m -83.51408,-1.36266 c -8.87119,-0.27884 -10.25815,-0.54668 -9.74574,-1.882 0.32859,-0.85629 0.8693,-2.64009 1.20158,-3.96399 0.59583,-2.37398 0.76775,-2.4071 12.49574,-2.4071 6.54037,0 11.89158,0.21589 11.89158,0.47976 0,1.91544 -3.44262,8.47858 -4.35857,8.30934 -0.62778,-0.11599 -5.79585,-0.3572 -11.48459,-0.53601 z m 130.84316,-6.96553 c 0,-0.39183 1.15976,-1.63719 2.57725,-2.76746 l 2.57724,-2.05502 -2.72956,-7.98254 c -1.50126,-4.3904 -5.26204,-14.28254 -8.35729,-21.98254 l -5.62774,-14 h -3.72061 c -3.91542,0 -5.20418,-2.06278 -1.96929,-3.15202 0.9625,-0.32409 7.28748,-2.78866 14.05551,-5.47682 16.09449,-6.39249 20.21612,-7.30679 24.62831,-5.46326 8.10421,3.38615 9.4181,16.13542 2.4775,24.04032 -3.11065,3.54283 -10.94602,7.2664 -12.83447,6.09927 -1.60572,-0.99238 -1.30045,-2.54749 0.50007,-2.54749 0.86731,0 2.94841,-1.37149 4.62467,-3.04775 2.69462,-2.69461 2.9908,-3.55303 2.55621,-7.40866 -0.58538,-5.19346 -3.94304,-10.30099 -7.33077,-11.15126 -3.03152,-0.76086 -8.35418,0.23577 -10.67659,1.99912 -1.64003,1.24523 -1.49841,2.01016 2.26217,12.21847 2.20646,5.98954 6.10798,15.98377 8.67004,22.20939 l 4.65831,11.31931 3.79993,-0.31931 c 6.86133,-0.57656 4.19431,1.61038 -7.2326,5.93069 -11.60872,4.38905 -12.90829,4.7452 -12.90829,3.53756 z m -266.53772,-6.58985 c -6.07075,-2.85874 -13.94575,-6.51523 -17.5,-8.12554 -5.78049,-2.61894 -6.16968,-2.96907 -3.68891,-3.31868 3.21064,-0.45247 6.20144,-5.84703 16.73902,-30.1924 l 6.2497,-14.4389 -2.68893,-2.31292 c -1.47892,-1.27211 -2.44074,-2.71451 -2.1374,-3.20533 0.48147,-0.77903 8.28449,2.48459 33.33727,13.94335 l 6.27302,2.86918 -2.77302,5.02609 c -2.69625,4.88693 -5.1807,6.28105 -4.37272,2.4537 1.05534,-4.99905 0.64536,-5.62261 -5.90031,-8.97408 -10.74226,-5.50019 -11.06503,-5.47155 -14.40139,1.27785 -1.57687,3.18998 -3.48439,7.2546 -4.23894,9.03249 l -1.3719,3.23252 5.9776,3.01748 c 7.26076,3.66522 9.37084,3.76975 10.8437,0.53719 0.69204,-1.51887 1.68215,-2.26844 2.55432,-1.93376 1.13443,0.43532 0.68281,2.1579 -2.21958,8.46587 -2.0041,4.35564 -4.09381,7.76664 -4.64381,7.58002 -0.55,-0.18663 -0.83021,-1.19264 -0.62268,-2.23558 0.88036,-4.42431 0.47618,-4.96982 -6.14562,-8.29462 -3.72257,-1.8691 -7.01758,-3.14909 -7.32224,-2.84443 -0.95439,0.95439 -8.4099,18.71144 -8.40096,20.00889 0.005,0.67864 3.49217,2.66014 7.75,4.40333 11.45296,4.68892 10.89274,4.65437 13.79395,0.8507 1.42678,-1.87061 3.17874,-3.17678 3.89324,-2.9026 1.87944,0.72121 -4.03091,11.40011 -6.2708,11.33018 -0.92119,-0.0288 -6.64186,-2.39126 -12.71261,-5.25 z m 108.28773,-56.35579 c -1.56981,-0.43826 -1.75,-2.07505 -1.75,-15.89619 0,-15.16044 -0.0361,-15.41581 -2.25,-15.91783 -4.87533,-1.10551 -33.02019,-5.59105 -33.30355,-5.30769 -0.16579,0.16579 -2.83927,5.92157 -5.94106,12.79062 -3.10178,6.86904 -5.96387,12.82113 -6.36018,13.22685 -0.72873,0.74602 -49.65407,-17.34653 -51.26547,-18.95793 -0.49532,-0.49532 1.50074,-6.78267 4.62438,-14.56621 3.02273,-7.5321 5.49587,-14.09281 5.49587,-14.57937 0,-0.48655 -6.78862,-5.28211 -15.08581,-10.6568 l -15.08582,-9.77217 -10.68051,10.6474 c -5.87428,5.85607 -10.972176,10.6474 -11.328676,10.6474 -0.52576,0 -12.656631,-13.02479 -34.714911,-37.27304 l -2.52259,-2.77305 10.31638,-10.35161 10.31638,-10.35161 -10.26261,-14.62534 c -5.64443,-8.04394 -10.78316,-14.62535 -11.41938,-14.62535 -0.63623,0 -2.9288,0.84507 -5.09461,1.87793 -9.56335,4.5607 -18.4246,8.12207 -20.20898,8.12207 -1.58033,0 -3.72153,-4.2707 -11.65684,-23.25 -5.3465,-12.7875 -10.19084,-24.11696 -10.76521,-25.17658 -1.45045,-2.67588 0.001,-3.55157 14.23737,-8.58905 6.57571,-2.3268 11.95583,-4.45145 11.95583,-4.72143 0,-0.83348 -4.9869,-30.62698 -5.52154,-32.98761 -0.49127,-2.16916 -0.89658,-2.23154 -16.24115,-2.5 L 0.32547361,295.08804 v -28 -28 L 15.516253,238.81231 c 13.37777,-0.24282 15.25059,-0.48152 15.6919,-2 2.06191,-7.09469 7.49182,-35.73781 6.88155,-36.30061 -0.42033,-0.38764 -6.27673,-2.85483 -13.01423,-5.48265 -9.56428,-3.73034 -12.25,-5.1857 -12.25,-6.63809 0,-3.29839 19.36017,-49.79868 20.73739,-49.80819 0.41944,-0.003 6.50193,2.54529 13.51666,5.66263 7.01472,3.11733 12.93097,5.4822 13.14722,5.25526 0.21625,-0.22694 4.51855,-6.90106 9.56067,-14.83138 l 9.16748,-14.41876 -10.56471,-10.59757 c -5.81059,-5.82866 -10.56471,-11.036005 -10.56471,-11.571865 0,-1.30642 38.199824,-39.493049 39.506701,-39.493049 0.56426,0 6.145286,5.133928 12.402276,11.408729 l 11.37636,11.408728 14.35733,-9.565537 c 7.89652,-5.261045 14.35556,-10.057473 14.3534,-10.658729 -0.002,-0.601255 -2.47,-7.609272 -5.48411,-15.573371 -6.14489,-16.236518 -6.20859,-15.633322 1.98803,-18.8253 2.75,-1.070922 13.49505,-5.410241 23.87789,-9.642932 11.82409,-4.820232 19.23024,-7.3434591 19.82086,-6.752835 0.51864,0.518633 3.39513,7.385131 6.39222,15.258884 2.99709,7.873755 5.59896,14.465622 5.78193,14.648594 0.31213,0.312134 31.07671,-6.127845 34.87711,-7.300859 1.55939,-0.481316 1.75,-2.090328 1.75,-14.772761 0,-9.7364761 0.37908,-14.6116966 1.2,-15.4326116 0.86727,-0.867268 7.91516,-1.2 25.41821,-1.2 13.32002,0 24.93001,0.273145 25.79999,0.606988 1.341,0.514591 1.58179,2.7979465 1.58179,15.0000006 0,7.916156 0.1125,14.394709 0.25,14.396782 0.1375,0.0021 8.55312,1.5695 18.70139,3.483169 12.04582,2.271496 18.67114,3.123812 19.08442,2.455121 0.34817,-0.563352 2.33277,-6.293278 4.41021,-12.73317 2.07745,-6.43989 4.3367,-12.302561 5.02056,-13.028158 1.02079,-1.083085 5.52122,0.326359 25.1384,7.872832 13.14226,5.055655 24.44962,9.707496 25.12746,10.337423 0.96726,0.898886 0.16038,4.225554 -3.75,15.46084 -2.74034,7.873535 -4.98244,14.877243 -4.98244,15.563797 0,0.686553 3.9375,3.731379 8.75,6.76628 4.8125,3.034901 11.30136,7.151233 14.41969,9.147404 l 5.66969,3.629402 9.83031,-10.953473 c 5.40667,-6.02441 10.44088,-10.96512 11.18714,-10.979355 0.74626,-0.01423 10.19626,8.731319 21,19.434566 l 19.64317,19.460451 -11.34136,11.396825 -11.34136,11.39682 10.15039,14.14273 c 5.58272,7.7785 10.48787,14.14273 10.90033,14.14273 0.41247,0 6.96393,-2.5184 14.55881,-5.59645 11.43938,-4.63615 14.01956,-5.36541 15.03677,-4.25 2.11657,2.32091 20.62692,51.15595 19.73002,52.05285 -0.46859,0.46859 -6.87869,3.05089 -14.24468,5.73846 -7.36599,2.68757 -13.5151,5.26193 -13.66471,5.72081 -0.1496,0.45888 1.23508,8.48433 3.07707,17.83433 l 3.34907,17 16.39482,0.5 16.39483,0.5 0.28109,26 c 0.15461,14.3 0.0364,27.0011 -0.26269,28.22467 -0.52972,2.1671 -0.95073,2.2318 -16.26901,2.5 l -15.72522,0.27533 -2.68407,13.5 c -1.47624,7.425 -2.94763,14.87221 -3.26976,16.54935 -0.58446,3.04299 -0.55852,3.06264 12.42199,9.40872 9.48084,4.63513 13.00767,6.84585 13.00767,8.1536 0,0.98683 -3.19742,10.2529 -7.10538,20.59128 -3.90796,10.33838 -7.9903,21.15955 -9.07185,24.04705 -2.47906,6.61849 -2.94007,6.63464 -18.74788,0.65672 -6.68048,-2.52631 -12.74599,-4.36317 -13.4789,-4.08193 -0.73292,0.28125 -4.26813,4.71073 -7.85603,9.84328 -3.5879,5.13256 -7.96377,11.13193 -9.72417,13.33193 l -3.20072,4 11.34246,10.69068 11.34247,10.69068 -19.49038,19.55932 c -10.71971,10.75763 -19.79422,19.55932 -20.16557,19.55932 -0.37136,0 -5.40604,-4.51681 -11.18818,-10.03735 l -10.51299,-10.03735 -14.57144,9.64612 c -8.01429,5.30536 -14.57144,10.07423 -14.57144,10.59747 0,0.52325 2.50325,7.06105 5.56278,14.52845 3.52137,8.59462 5.21344,13.92644 4.61083,14.52905 -0.52358,0.52358 -12.3386,5.42149 -26.25561,10.88425 -20.32282,7.97719 -25.54272,9.68201 -26.51817,8.66082 -0.66799,-0.6993 -3.12893,-7.24071 -5.46875,-14.53646 l -4.25422,-13.265 -3.3002,0.61912 c -1.81511,0.34051 -9.7299,2.07478 -17.58843,3.85392 l -14.28823,3.2348 -0.81416,14.89191 c -0.44779,8.19055 -1.04697,15.12554 -1.33151,15.41108 -0.66579,0.66813 -49.28594,1.00833 -51.60432,0.36109 z m 52.12165,-73.88733 c 77.63618,-11.28864 140.15595,-68.09418 159.53601,-144.95459 3.7957,-15.05358 4.96517,-25.9214 4.94999,-46 -0.0201,-26.62767 -3.45704,-45.49938 -12.54637,-68.89071 C 422.42201,140.02783 373.44642,95.961245 314.9972,80.55204 c -22.31595,-5.883245 -54.54757,-7.779789 -76.35387,-4.492745 -29.1171,4.389058 -55.2801,14.565573 -79.72504,31.010315 -12.8706,8.65838 -15.33196,10.71558 -28.11382,23.49744 -11.37066,11.37066 -14.0976,14.48431 -20.16179,23.02099 -36.651737,51.59533 -46.330457,114.42508 -26.727107,173.5 22.763817,68.5991 82.697177,119.17352 153.909897,129.87601 13.09796,1.96848 41.59348,2.00929 54.87165,0.0786 z m -39.38185,-36.70459 c -0.95005,-2.3375 -2.74552,-7.20934 -3.98993,-10.82631 l -2.26257,-6.57631 2.402,-7.36792 c 4.19658,-12.87266 8.37176,-36.9023 7.02267,-40.41797 -1.17835,-3.07073 -3.66129,-0.5094 -3.67933,3.7955 -0.049,11.6891 -5.08982,24.78908 -12.1488,31.57198 -6.19435,5.95209 -11.90962,8.31261 -21.4252,8.84904 -9.63898,0.54338 -16.8249,-1.22477 -26.25502,-6.46025 -7.04835,-3.91316 -17.94443,-14.03972 -20.54669,-19.09562 -2.31848,-4.50454 -1.26591,-9.48987 2.70998,-12.83535 4.23063,-3.55985 10.08378,-2.93239 18.04515,1.93443 10.05108,6.14428 20.75266,6.92584 28.18167,2.05817 3.11666,-2.04211 6.45627,-9.1027 6.45627,-13.6498 0,-3.4286 -0.21678,-3.67465 -3.75,-4.25634 -8.68943,-1.43057 -16.72743,-4.95081 -21.00001,-9.19693 -3.82071,-3.79706 -4.24933,-4.70614 -4.24341,-9 0.0106,-7.70732 5.26619,-13.54546 15.14865,-16.82788 2.66463,-0.88505 4.84477,-1.91652 4.84477,-2.29216 0,-1.73647 -7.91071,-12.20383 -12.96586,-17.15628 -13.85295,-13.57153 -29.63295,-15.73054 -37.84145,-5.17743 -3.56986,4.58951 -4.09658,5.89463 -6.12538,15.17743 -1.62978,7.45706 -1.65687,7.49864 -4.7318,7.26266 -1.70095,-0.13053 -6.14405,-1.60641 -9.87357,-3.27973 -17.75961,-7.9682 -30.48938,-30.29142 -30.44717,-53.39289 0.052,-28.44264 16.4587,-45.78818 40.23522,-42.53752 8.14037,1.11293 20.32983,6.31648 30.65418,13.08595 11.32875,7.42803 27.86907,23.15351 38.0701,36.19461 4.11001,5.25428 7.55538,9.46632 7.65639,9.36008 0.10101,-0.10624 -1.32315,-5.42711 -3.1648,-11.82417 -12.19298,-42.3529 -7.30037,-82.03679 14.89436,-120.80794 5.65903,-9.88555 18.45031,-28.06105 19.74838,-28.06105 2.70636,0 19.36845,25.57917 26.8459,41.21304 11.6011,24.25564 15.40086,40.33578 15.42739,65.28696 0.0188,17.67047 -1.2657,27.4274 -5.50896,41.84579 -1.10808,3.76519 -1.86024,7.00025 -1.67146,7.18902 0.18877,0.18877 3.22743,-3.24581 6.75257,-7.63241 16.70727,-20.79013 38.54038,-37.57408 56.46061,-43.40345 7.33408,-2.38574 9.62095,-2.69078 17.26943,-2.30354 12.62845,0.63938 20.56563,5.19865 27.12689,15.58222 5.99696,9.49054 8.09827,30.8803 4.35856,44.36685 -4.34197,15.65852 -16.52095,28.72654 -34.85599,37.4004 -2.95242,1.39672 -5.75919,2.29773 -6.23727,2.00226 -0.47808,-0.29547 -1.372,-3.42428 -1.98649,-6.9529 -2.70511,-15.53393 -9.07364,-22.59424 -20.38041,-22.59424 -10.30259,0 -24.85751,10.24064 -33.99865,23.92098 l -3.62227,5.42097 5.61272,2.28118 c 11.7367,4.77015 16.80793,11.82929 13.75211,19.1429 -0.84126,2.01343 -2.2999,4.52759 -3.24143,5.58703 -2.30376,2.5923 -14.38036,8.33066 -19.27113,9.15695 -3.63803,0.61464 -3.94073,0.9142 -3.94073,3.89975 0,4.96761 2.90518,12.3705 5.72518,14.58871 6.38566,5.02296 17.01144,4.17135 30.42907,-2.43877 3.97414,-1.95783 8.39009,-3.5597 9.81323,-3.5597 3.56358,0 6.97422,2.61621 8.65509,6.63911 2.6021,6.22769 -0.49565,12.06841 -10.47235,19.7453 -11.4865,8.83866 -23.86922,13.61559 -35.29421,13.61559 -18.63252,0 -31.34806,-12.49901 -34.25981,-33.67643 -1.35009,-9.81931 -2.29309,-12.40941 -3.70646,-10.18033 -1.73545,2.73704 2.13033,26.13966 6.32599,38.29627 l 3.08534,8.9395 -3.27303,10.0605 c -1.80016,5.53327 -3.723,10.62299 -4.27297,11.31049 -0.68311,0.85393 -4.25372,1.25 -11.26893,1.25 h -10.26897 z" id="path3722" inkscape:connector-curvature="0"/>
</svg>