<svg viewBox="0 0 512 512" xmlns="http://www.w3.org/2000/svg" fill-rule="evenodd" clip-rule="evenodd" stroke-linejoin="round" stroke-miterlimit="2"><path d="M116.225 0C104.96.51 90.113 1.534 83.457 3.07 73.217 5.12 63.49 8.19 55.81 12.288c-9.73 4.608-17.92 10.752-25.09 17.92-7.68 7.68-13.823 15.872-18.43 25.6-4.097 7.68-7.17 17.408-9.217 27.648C1.537 90.11.513 104.96.513 116.223 0 120.83 0 126.975 0 130.047v265.729c.513 11.264 1.537 26.112 3.073 32.768 2.048 10.24 5.12 19.968 9.216 27.648 4.607 9.728 10.75 17.92 17.92 25.088 7.68 7.68 15.87 13.824 25.6 18.432 7.68 4.096 17.407 7.168 27.647 9.216 6.656 1.536 21.504 2.56 32.768 2.56 4.608.512 10.752.512 13.824.512h265.727c11.264-.512 26.112-1.536 32.768-3.072 10.24-2.048 19.968-5.12 27.648-9.216 9.728-4.608 17.92-10.752 25.088-17.92 7.68-7.68 13.825-15.872 18.433-25.6 4.096-7.68 7.168-17.408 9.216-27.648 1.535-6.656 2.56-21.504 2.56-32.768.51-4.608.51-10.752.51-13.824v-265.73c-.51-11.263-1.535-26.11-3.07-32.767-2.05-10.24-5.12-19.968-9.217-27.648-4.608-9.728-10.752-17.92-17.92-25.088-7.68-7.68-15.872-13.825-25.6-18.433-7.68-4.096-17.408-7.168-27.648-9.216C421.89 1.536 407.04.51 395.777.51 391.17 0 385.025 0 381.953 0H116.225z" fill="url(#a)" fill-rule="nonzero"/><path d="M344.754 289.698c-4.56-2.282-26.98-13.31-31.16-14.832-4.18-1.52-7.22-2.282-10.26 2.282s-11.78 14.832-14.44 17.875c-2.66 3.042-5.32 3.423-9.88 1.14-4.56-2.28-19.254-7.095-36.672-22.627-13.556-12.087-22.71-27.017-25.37-31.58-2.66-4.565-.282-7.032 2-9.305 2.052-2.04 4.56-5.323 6.84-7.985 2.28-2.662 3.04-4.564 4.56-7.606 1.52-3.043.76-5.706-.38-7.988-1.14-2.282-10.26-24.72-14.06-33.848-3.7-8.89-7.46-7.686-10.26-7.826-2.656-.132-5.7-.16-8.74-.16s-7.98 1.14-12.16 5.704-15.96 15.594-15.96 38.032c0 22.438 16.34 44.116 18.62 47.16 2.28 3.042 32.157 49.088 77.902 68.835 10.88 4.696 19.374 7.5 25.997 9.602 10.925 3.47 20.867 2.98 28.724 1.806 8.76-1.31 26.98-11.03 30.78-21.677 3.8-10.648 3.8-19.776 2.66-21.677-1.14-1.902-4.18-3.043-8.74-5.325M261.547 403.27h-.06c-27.22-.01-53.918-7.32-77.208-21.136l-5.54-3.287-57.413 15.056 15.325-55.96-3.608-5.735c-15.184-24.145-23.203-52.05-23.192-80.704.033-83.61 68.083-151.635 151.756-151.635 40.517.015 78.603 15.81 107.243 44.473 28.64 28.663 44.405 66.764 44.39 107.283-.035 83.617-68.083 151.645-151.693 151.645M390.65 122.563c-34.458-34.486-80.282-53.487-129.104-53.507-100.595 0-182.468 81.84-182.508 182.437-.013 32.156 8.39 63.546 24.36 91.212L77.51 437.25l96.75-25.37c26.656 14.534 56.67 22.193 87.215 22.206h.075c100.586 0 182.465-81.852 182.506-182.448.02-48.75-18.946-94.59-53.405-129.076" fill="#fff"/><defs><linearGradient gradientTransform="matrix(0 -512 -512 0 256 512)" gradientUnits="userSpaceOnUse" id="a" x2="1"><stop offset="0" stop-color="#25cf43"/><stop offset="1" stop-color="#61fd7d"/></linearGradient></defs></svg>