<svg xmlns="http://www.w3.org/2000/svg" width="358145.299" height="358144.607" viewBox="0 0 335.76122 335.76057"><path style="line-height:normal;text-indent:0;text-align:start;text-decoration-line:none;text-decoration-style:solid;text-decoration-color:#000000;text-transform:none;block-progression:tb;isolation:auto;mix-blend-mode:normal" d="M297 38.76c-42.232-42.232-111.31-42.23-153.543 0-42.232 42.233-42.232 111.31 0 153.543 42.233 42.232 111.31 42.233 153.543 0 42.233-42.23 42.233-111.31 0-153.544zm-28.284 28.284c26.946 26.947 26.946 70.03 0 96.976-26.946 26.947-70.028 26.945-96.974 0-26.947-26.947-26.947-70.027 0-96.974 26.946-26.946 70.028-26.947 96.974 0zM114.42 170.834L7.086 278.165l50.508 50.508 107.332-107.332c-10.696-5.14-20.713-12.12-29.55-20.958-8.838-8.838-15.82-18.854-20.958-29.55z" color="#000" font-family="sans-serif" white-space="normal" overflow="visible" solid-color="#000000"/></svg>